<svg xmlns="http://www.w3.org/2000/svg" xmlns:xlink="http://www.w3.org/1999/xlink" width="296" height="240" viewBox="0 0 296 240">
  <defs>
    <rect id="box-and-frame-new-a" width="293.676" height="237" y=".284"/>
    <rect id="box-and-frame-new-c" width="294" height="235" x=".545" y=".007"/>
    <linearGradient id="box-and-frame-new-e" x1="112.03%" x2="0%" y1="66.148%" y2="26.091%">
      <stop offset="0%" stop-color="#FFF" stop-opacity="0"/>
      <stop offset="100%" stop-color="#FFF"/>
    </linearGradient>
    <linearGradient id="box-and-frame-new-f" x1="91.974%" x2="0%" y1="40.153%" y2="78.42%">
      <stop offset="0%" stop-color="#FFF" stop-opacity="0"/>
      <stop offset="100%" stop-color="#FFF"/>
    </linearGradient>
    <linearGradient id="box-and-frame-new-g" x1="7.254%" y1="20.866%" y2="77.447%">
      <stop offset="0%" stop-color="#FFF"/>
      <stop offset="52.797%" stop-color="#979797"/>
      <stop offset="100%" stop-color="#FFF"/>
    </linearGradient>
  </defs>
  <g fill="none" fill-rule="evenodd" transform="translate(.96 1)">
    <mask id="box-and-frame-new-b" fill="#fff">
      <use xlink:href="#box-and-frame-new-a"/>
    </mask>
    <use fill="#FFF" xlink:href="#box-and-frame-new-a"/>
    <g mask="url(#box-and-frame-new-b)">
      <g transform="translate(-.662 .5)">
        <mask id="box-and-frame-new-d" fill="#fff">
          <use xlink:href="#box-and-frame-new-c"/>
        </mask>
        <use fill="#FFF" xlink:href="#box-and-frame-new-c"/>
        <g mask="url(#box-and-frame-new-d)">
          <g transform="translate(-18.6 185.905)">
            <path fill="#F1F1F1" d="M367.970145,23.0348309 C376.239061,38.3394263 387.682423,52.3710505 402.300231,65.1297036 C422.873048,83.085983 445.156525,102.814807 469.150662,124.316175 L469.150662,124.316175 C471.695256,126.596409 474.35736,128.742007 477.126067,130.744177 C505.559069,151.305294 525.512334,166.774833 536.985862,177.152794 C555.017083,193.462276 507.466658,190.871326 481.758881,189.105213 C456.051105,187.339099 456.051105,206.060143 426.982738,203.143576 C397.914372,200.227009 382.225479,161.318062 344.249781,154.0856 C306.274083,146.853138 283.615425,176.749235 205.686426,189.105213 C127.757428,201.46119 71.6899269,208.814399 34.8417341,203.143576 C-2.00645872,197.472752 -17.0698159,184.110281 27.1012877,161.62151 C71.2723913,139.13274 94.571804,160.620281 182.891644,127.767138 C271.211484,94.9139936 291.553825,76.7751881 323.946715,51.2011839 C335.997575,41.6870981 344.881273,32.1674926 350.59781,22.6423675 L350.597812,22.6423686 C353.439828,17.9068877 359.582602,16.3719307 364.318083,19.2139462 C365.856086,20.1369841 367.117504,21.4567131 367.970145,23.0348309 Z" transform="matrix(-1 0 0 1 540.97 0)"/>
            <path fill="#AFD189" d="M131.567444,71.7517903 C135.044935,66.6514775 156.105419,43.75588 180.790322,40.7573399 C205.475225,37.7587998 228.065198,58.2921119 232.168729,62.4357134 C236.272259,66.5793149 223.585596,55.7831652 213.616848,60.398543 C203.648101,65.0139208 193.787702,51.6149711 187.409401,52.3146053 C181.031099,53.0142396 176.140456,74.9006464 172.389492,69.108839 C168.638528,63.3170317 175.813114,55.7831652 170.143385,55.7831652 C164.473656,55.7831652 128.089954,76.8521031 131.567444,71.7517903 Z"/>
          </g>
        </g>
        <g mask="url(#box-and-frame-new-d)">
          <g transform="matrix(-1 0 0 1 280.67 -22.814)">
            <path fill="#F1F1F1" d="M455.73106,64.6795859 C459.426944,68.4664869 463.34117,72.1657202 467.473737,75.7772857 C491.55497,96.8225468 517.653299,119.960537 545.768725,145.191257 L545.768725,145.191258 C548.321962,147.482527 550.993749,149.638147 553.773054,151.649217 C587.157518,175.805795 610.559411,193.960796 623.978731,206.114217 C644.931049,225.090018 589.677352,222.075493 559.80486,220.02065 C529.932368,217.965807 529.932368,239.747419 496.154864,236.354043 C462.377359,232.960668 444.146832,187.69078 400.018989,179.275936 C355.891145,170.861091 329.561736,205.644683 239.008071,220.02065 C148.454407,234.396617 83.3038499,242.951948 40.4861702,236.354043 C-2.33150937,229.756138 -19.835163,214.209133 31.4917548,188.043837 C82.8186725,161.87854 109.89264,186.878924 212.520485,148.654859 C315.14833,110.430793 338.786174,89.3266059 376.426782,59.5716935 C376.426782,59.5716935 376.426782,59.5716935 376.426782,59.5716935 C400.271528,40.7224146 434.501429,42.9271152 455.731073,64.6795732 Z" transform="matrix(-1 0 0 1 628.608 0)"/>
            <path fill="#FFF" d="M270.976432,92.2301245 C270.976432,90.2823688 278.015479,73.5403468 287.086151,77.0538617 C296.156824,80.5673766 303.364733,97.7019864 300.813187,103.787358 C298.261642,109.87273 273.734395,108.897466 273.734395,108.897466 C273.734395,108.897466 275.068188,129.322971 256.672149,135.845546 C238.27611,142.36812 199.351721,147.577092 203.91879,133.651569 C208.485859,119.726047 270.976432,94.1778801 270.976432,92.2301245 Z" transform="matrix(-1 0 0 1 504.882 0)"/>
            <path fill="#FFF" d="M88.4169025,84.8289848 C117.662349,103.88998 136.347809,134.88367 152.276338,146.812163 C168.204867,158.740657 195.848307,159.881325 193.421595,163.464481 C190.994884,167.047637 160.189337,166.143586 142.874465,160.694479 C125.559593,155.245371 120.943531,146.267578 115.92852,139.076884 C110.91351,131.886191 127.32879,134.725625 115.92852,122.058463 C104.528251,109.391302 85.8179405,106.738988 81.1966172,100.485286 C76.5752939,94.2315842 59.1714558,65.7679897 88.4169025,84.8289848 Z" transform="matrix(-1 0 0 1 265.412 0)"/>
            <path fill="#D8D8D8" d="M147.868092,112.32984 C148.826166,111.664534 158.746903,114.999052 164.341687,116.955946 C169.936472,118.91284 173.13335,121.11277 174.462388,122.487992 C175.791425,123.863215 177.283666,127.016001 172.347322,128.274486 C167.410979,129.53297 159.611722,126.999907 157.310142,125.302018 C155.008563,123.604129 163.435246,123.611813 160.430028,119.483026 C157.42481,115.354238 146.910017,112.995147 147.868092,112.32984 Z" transform="scale(-1 1) rotate(9 0 -1935.225)"/>
            <path fill="#AFD189" d="M153.930544,84.2350932 C157.959357,76.2969247 182.358775,40.6620303 210.95723,35.995078 C239.555684,31.3281257 265.727077,63.28634 270.481183,69.7354751 C275.235288,76.1846103 260.537278,59.3813949 248.988082,66.5648066 C237.438887,73.7482183 226.015218,52.8939837 218.625699,53.9829001 C211.23618,55.0718166 205.570173,89.1359985 201.22453,80.1215823 C196.878887,71.1071662 205.190934,59.3813949 198.622325,59.3813949 C192.053715,59.3813949 149.90173,92.1732617 153.930544,84.2350932 Z"/>
            <path fill="#D8D8D8" d="M47.378832,187.105288 C44.0837714,185.916477 30.1250253,193.14137 23.0355192,198.339242 C15.9460131,203.537114 5.31779252,210.387475 8.59330293,214.041211 C11.8688133,217.694948 18.9743291,218.116557 37.5035798,218.736889 C56.0328305,219.35722 75.8320725,219.177614 75.8320725,216.292263 C75.8320725,213.406912 45.5720099,212.919035 38.5278312,205.693206 C31.4836525,198.467376 50.6738927,188.294098 47.378832,187.105288 Z"/>
          </g>
        </g>
      </g>
    </g>
    <rect width="294" height="237" fill="url(#box-and-frame-new-e)" opacity=".4" transform="matrix(-1 0 0 1 294 0)"/>
    <rect width="294" height="239" fill="url(#box-and-frame-new-f)" opacity=".7"/>
    <path stroke="url(#box-and-frame-new-g)" d="M1.13686838e-13,-2.84217094e-14 C19.0066525,-2.84217094e-14 117.032831,-2.84217094e-14 294.078534,-2.84217094e-14 L294.078534,237" transform="matrix(-1 0 0 1 294.079 0)"/>
    <path stroke="url(#box-and-frame-new-g)" d="M0,9.9475983e-14 C19.0066525,9.9475983e-14 117.032831,9.9475983e-14 294.078534,9.9475983e-14 L294.078534,237" transform="matrix(1 0 0 -1 0 237)"/>
    <rect width="228" height="176" x="33.039" y="31.5" fill="#FFF"/>
  </g>
</svg>
