<svg xmlns="http://www.w3.org/2000/svg" width="24" height="24" viewBox="0 0 24 24">
  <g fill="#429C40" transform="translate(-.002 .033)">
    <rect width="4.981" height="15.772" y="7.471"/>
    <path d="M19.4064932,7.65608478 C19.3520068,7.63887857 19.3003882,7.62023851 19.2430342,7.60446615 C19.1742093,7.58869379 19.1053845,7.57578913 19.0351258,7.56431832 C18.7626941,7.50983199 18.4644531,7.47111801 18.1145935,7.47111801 C15.1235804,7.47111801 13.2265957,9.64626988 12.6014366,10.4865065 L12.6014366,7.47111801 L7.47111801,7.47111801 L7.47111801,23.2434783 L12.6014366,23.2434783 L12.6014366,14.6403727 C12.6014366,14.6403727 16.4785696,9.24049006 18.1145935,13.2065217 C18.1145935,16.7466997 18.1145935,23.2434783 18.1145935,23.2434783 L23.2434783,23.2434783 L23.2434783,12.6000028 C23.2434783,10.2169425 21.610322,8.23105901 19.4064932,7.65608478 Z"/>
    <circle cx="2.49" cy="2.49" r="2.49"/>
  </g>
</svg>
