<svg xmlns="http://www.w3.org/2000/svg" width="24" height="19" viewBox="0 0 24 19">
  <path fill="#429C40" d="M106.92254,5.99412066 C107.012296,5.89589491 107.019473,5.75582783 106.940325,5.65044813 C106.861125,5.54502132 106.714425,5.49941487 106.58057,5.53890288 C105.959086,5.72227019 105.311965,5.85259455 104.644198,5.92596974 C105.440515,5.48995471 106.097465,4.86257124 106.536108,4.11324095 C106.600279,4.00362537 106.579218,3.869065 106.483949,3.77992288 C106.38868,3.69073364 106.240837,3.66724801 106.11759,3.72151455 C105.342906,4.06269254 104.514399,4.31849364 103.645954,4.47451598 C102.712298,3.56709259 101.38337,3 99.9117454,3 C97.0874274,3 94.796397,5.09074494 94.796397,7.67007698 C94.796397,8.03544667 94.8417954,8.39159153 94.9296799,8.73418156 C91.0631761,8.55669737 87.5942847,7.00240544 85.1003917,4.59688633 C84.9280029,4.43055678 84.6705896,4.36024087 84.4253449,4.41234242 C84.1800482,4.46444384 83.9838421,4.63100884 83.9114023,4.84948693 C83.7694871,5.27783038 83.692939,5.73220099 83.692939,6.20257385 C83.692939,7.82374599 84.4852521,9.25284361 85.857551,10.0902806 C85.4870318,10.0794556 84.9698651,9.97553489 84.5080291,9.86309534 C84.2504079,9.80035691 83.9753136,9.86620162 83.7857639,10.0362023 C83.596266,10.2061559 83.5214862,10.4543324 83.5882057,10.6881069 C84.0855593,12.430614 85.705079,13.7884544 87.6448313,14.1442228 C87.2144051,14.2512968 86.8188727,14.3081049 86.3520445,14.3081049 C86.1424216,14.3081049 85.9489197,14.408684 85.8436142,14.5722367 C85.7383087,14.7358365 85.7373207,14.9375123 85.8403381,15.1022887 C86.7085749,16.491663 88.3427074,17.4367388 90.2094999,17.4688375 C88.4586734,18.7207335 86.2593238,19.4667692 83.8636639,19.4667692 C83.7226845,19.4667221 83.6036505,19.5508753 83.5706287,19.6707983 C83.5376071,19.7907682 83.5991782,19.915539 83.7197724,19.9735708 C85.7416889,20.9464152 88.045408,21.5 90.4895864,21.5 C99.8980688,21.5 105.044307,14.3829391 105.044307,8.21194247 C105.044307,8.00871343 105.039418,7.80882624 105.029694,7.60780931 C105.731366,7.1445904 106.368347,6.60117177 106.92254,5.99412066 Z" transform="translate(-83 -3)"/>
</svg>
